<?xml version="1.0" encoding="UTF-8"?>
<svg xmlns="http://www.w3.org/2000/svg" xmlns:xlink="http://www.w3.org/1999/xlink" width="2100" height="2100" viewBox="0 0 2100 2100" style="background: transparent;">

<path fill-rule="nonzero" fill="#FF5800" fill-opacity="1" d="M 748.640625 1510.242188 L 621.964844 1412.015625 L 853.265625 1410.203125 L 1084.558594 1408.390625 L 1148.820312 1218.917969 C 1184.160156 1114.710938 1214.519531 1029.449219 1216.28125 1029.449219 C 1219.488281 1029.449219 1361.269531 1129.8125 1372.25 1139.855469 C 1375.449219 1142.789062 1344.53125 1249.425781 1303.539062 1376.828125 L 1229.011719 1608.46875 L 875.316406 1608.46875 Z M 1273.359375 1570.199219 C 1273.359375 1567.507812 1304.378906 1469.960938 1342.289062 1353.425781 C 1380.199219 1236.886719 1411.21875 1138.421875 1411.21875 1134.609375 C 1411.21875 1130.796875 1367.019531 1095.589844 1313 1056.371094 C 1258.96875 1017.160156 1184.601562 962.890625 1147.730469 935.789062 L 1080.691406 886.519531 L 1158.769531 830.460938 C 1201.710938 799.628906 1238.929688 774.410156 1241.46875 774.410156 C 1245.578125 774.410156 1611.808594 1036.550781 1627.859375 1050.96875 C 1631.699219 1054.421875 1612.609375 1123.921875 1580.21875 1224.457031 L 1526.171875 1392.191406 L 1436.679688 1457.246094 C 1291.039062 1563.109375 1273.359375 1575.335938 1273.359375 1570.199219 Z M 581.945312 1375.828125 C 580.335938 1372.984375 554.863281 1297.882812 525.335938 1208.9375 L 471.648438 1047.21875 L 519.050781 903.921875 C 545.121094 825.109375 568.152344 760.621094 570.234375 760.621094 C 572.3125 760.621094 605.8125 858.328125 644.679688 977.75 L 715.34375 1194.882812 L 1128.089844 1194.882812 L 1095.960938 1287.941406 L 1063.828125 1380.996094 L 824.347656 1380.996094 C 692.632812 1380.996094 583.550781 1378.667969 581.945312 1375.828125 Z M 736.703125 1155.25 C 730.546875 1143.59375 590.949219 710.96875 590.949219 703.53125 C 590.949219 701.519531 654.628906 652.988281 732.460938 595.699219 L 873.976562 491.53125 L 1029.238281 493.378906 L 1184.5 495.238281 L 1003.179688 629.199219 C 903.457031 702.871094 820.527344 764.179688 818.894531 765.441406 C 817.261719 766.691406 827.371094 804.109375 841.363281 848.609375 C 918.261719 1093.109375 935.601562 1150.085938 935.601562 1158.277344 C 935.601562 1165.296875 914.117188 1167.3125 839.339844 1167.3125 C 754.6875 1167.3125 742.3125 1165.859375 736.703125 1155.25 Z M 1458.988281 889.660156 C 1373.960938 828.050781 1290.039062 767.359375 1272.511719 754.800781 L 1240.640625 731.960938 L 1076.058594 852.699219 L 911.476562 973.429688 L 882.179688 886.179688 C 866.066406 838.191406 852.882812 795.109375 852.882812 790.429688 C 852.882812 782.460938 1211.71875 517.179688 1234.140625 508.570312 C 1240.570312 506.109375 1297.730469 543.070312 1385.558594 606.5 L 1526.648438 708.410156 L 1572.769531 852.410156 C 1598.140625 931.609375 1617.699219 997.601562 1616.25 999.050781 C 1614.800781 1000.5 1544.03125 951.28125 1458.988281 889.660156 Z M 1458.988281 889.660156 "/>
</svg>